# xmcd
#
# Track frame offsets: 
#        150
#        18789
#        34557
#        53783
#        70421
#        82956
#        96485
#        109804
#        124443
#        136939
#        149543
#        161122
#
# Disc length: 2287 seconds
#
# Revision: 1
# Processed by: cddbd v1.5.2PL0 Copyright (c) Steve Scherf et al.
# Submitted via: ExactAudioCopyFreeDBPlugin 1.0
#
DISCID=a808ed0c
DTITLE=Mark Lanegan and Duke Garwood - With Animals
DYEAR=2018
DGENRE=Bluesrock
TTITLE0=Save Me
TTITLE1=Feast To Famine
TTITLE2=My Shadow Life
TTITLE3=Upon Doing Something Wrong
TTITLE4=LA Blue
TTITLE5=Scarlett
TTITLE6=Lonesome Infidel
TTITLE7=With Animals
TTITLE8=Ghost Stories
TTITLE9=Spaceman
TTITLE10=One Way Glass
TTITLE11=Desert Song
EXTD=
EXTT0=
EXTT1=
EXTT2=
EXTT3=
EXTT4=
EXTT5=
EXTT6=
EXTT7=
EXTT8=
EXTT9=
EXTT10=
EXTT11=
PLAYORDER=
